<?xml version="1.0" encoding="utf-8"?>
<!-- Generator: Adobe Illustrator 21.0.2, SVG Export Plug-In . SVG Version: 6.00 Build 0)  -->
<svg version="1.1" id="Layer_1" xmlns="http://www.w3.org/2000/svg" xmlns:xlink="http://www.w3.org/1999/xlink" x="0px" y="0px"
	 viewBox="0 0 50 50" style="enable-background:new 0 0 50 50;" xml:space="preserve">
<g>
	<path d="M28.8,46.3C26.3,46.8,23.7,47,21,47C9.6,47,2,42.9,2,39v-4.7C5.3,37.7,12.5,40,21,40c1.7,0,3.5-0.1,5.1-0.3
		c0.5-0.1,0.9-0.6,0.9-1.1c-0.1-0.5-0.6-0.9-1.1-0.9C24.3,37.9,22.7,38,21,38C9.6,38,2,33.9,2,30v-5.7C5.3,27.7,12.5,30,21,30
		s15.7-2.3,19-5.7V27c0,0.6,0.4,1,1,1s1-0.4,1-1V10c0-5.6-9.2-10-21-10C9.2,0,0,4.4,0,10v29c0,5.6,9.2,10,21,10
		c2.8,0,5.6-0.3,8.2-0.8c0.5-0.1,0.9-0.6,0.8-1.2C29.8,46.5,29.3,46.2,28.8,46.3z M21,2c11.4,0,19,4.1,19,8s-7.6,8-19,8S2,13.9,2,10
		S9.6,2,21,2z M21,20c8.5,0,15.7-2.3,19-5.7V20c0,3.9-7.6,8-19,8S2,23.9,2,20v-5.7C5.3,17.7,12.5,20,21,20z"/>
	<g>
		<path d="M39,36.4c-2,0-3.6,1.6-3.6,3.6c0,2,1.6,3.6,3.6,3.6c2,0,3.6-1.6,3.6-3.6C42.6,38,41,36.4,39,36.4z M39,42.8
			c-1.5,0-2.8-1.3-2.8-2.8c0-1.5,1.3-2.8,2.8-2.8c1.5,0,2.8,1.3,2.8,2.8C41.8,41.5,40.5,42.8,39,42.8z"/>
		<path d="M49,41.5v-3.1l-2.9-0.5c-0.2-0.5-0.4-1-0.6-1.5l1.7-2.4L45,31.8l-2.4,1.7c-0.5-0.3-1-0.5-1.5-0.6L40.5,30h-3.1l-0.5,2.9
			c-0.5,0.2-1.1,0.4-1.5,0.6L33,31.8L30.8,34l1.7,2.4c-0.3,0.5-0.5,1-0.6,1.5L29,38.4v3.1l2.9,0.5c0.2,0.5,0.4,1.1,0.6,1.5L30.8,46
			l2.2,2.2l2.4-1.7c0.5,0.3,1,0.5,1.5,0.6l0.5,2.9h3.1l0.5-2.9c0.5-0.2,1.1-0.4,1.5-0.6l2.4,1.7l2.2-2.2l-1.7-2.4
			c0.3-0.5,0.5-1,0.6-1.5L49,41.5z M46.1,45.9l-1.2,1.2l-2.3-1.6l-0.2,0.1c-0.6,0.3-1.2,0.6-1.8,0.8l-0.3,0.1l-0.5,2.8h-1.7
			l-0.5-2.8l-0.3-0.1c-0.6-0.2-1.2-0.4-1.8-0.7l-0.2-0.1l-2.3,1.6l-1.2-1.2l1.6-2.3l-0.1-0.2c-0.3-0.6-0.6-1.2-0.8-1.8l-0.1-0.3
			l-2.7-0.5v-1.7l2.7-0.5l0.1-0.3c0.2-0.6,0.4-1.2,0.8-1.8l0.1-0.2l-1.6-2.3l1.2-1.2l2.3,1.6l0.2-0.1c0.6-0.3,1.2-0.6,1.8-0.7
			l0.3-0.1l0.5-2.8h1.7l0.5,2.8l0.3,0.1c0.6,0.2,1.2,0.4,1.8,0.7l0.2,0.1l2.3-1.6l1.2,1.2l-1.6,2.3l0.1,0.2c0.3,0.6,0.6,1.2,0.7,1.8
			l0.1,0.3l2.8,0.5v1.7l-2.8,0.5l-0.1,0.3c-0.2,0.6-0.4,1.2-0.7,1.8l-0.1,0.2L46.1,45.9z"/>
	</g>
</g>
</svg>
