<?xml version="1.0" encoding="utf-8"?>
<!-- Generator: Adobe Illustrator 21.0.2, SVG Export Plug-In . SVG Version: 6.00 Build 0)  -->
<svg version="1.1" id="Layer_1" xmlns="http://www.w3.org/2000/svg" xmlns:xlink="http://www.w3.org/1999/xlink" x="0px" y="0px"
	 viewBox="0 0 800 600" style="enable-background:new 0 0 800 600;" xml:space="preserve">
<path d="M234.8,299.6c-9.5-8.1-12.6-17.8-11.8-29.2c0.4-5,0.4-10,0-15c-0.8-12.1,1.4-22.9,11.4-31.1c-1.9-2.2-4-3.8-5.1-6
	c-2.3-4.5-5.5-9.2-5.8-14c-0.8-11.4-0.6-23-0.1-34.4c0.5-11.7,8-19.4,17-25.7c13.2-9.1,28.2-14.2,43.5-18.2
	c44.6-11.4,90.1-14,135.9-12.5c33.4,1.1,66.4,4.5,98.7,13.5c14,3.9,27.6,8.8,39.7,17c11.7,7.9,18.6,18.3,17.5,33.1
	c-0.4,5.3-0.3,10.7,0,16c0.7,11.9-1.5,22.6-11.4,30.8c1.6,1.8,2.8,3.3,4.1,4.7c4.9,5.6,7.3,12.2,7.2,19.7c0,6.8-0.3,13.7,0.1,20.5
	c0.7,11.9-1.6,22.6-11.8,30.9c11.4,8.9,12.5,21,11.8,33.7c-0.2,3.3-0.2,6.7,0,10c0.8,12.1-1,23.3-11.8,31.8
	c11.3,9,12.5,20.8,11.8,33.4c-0.3,5.5-0.2,11,0,16.5c0.4,10.2-3.6,18.4-11,25.2c-10.3,9.2-22.6,14.5-35.5,18.8
	c-25.9,8.7-52.7,12.6-79.8,15c-36.6,3.2-73.2,3-109.8-1c-27.5-3-54.9-7.2-80.5-18.2c-8.9-3.8-17.3-9.3-25.1-15.1
	c-7.9-5.9-11.3-14.6-11-24.6c0.2-6.5,0.4-13,0-19.5c-0.7-11.8,1.8-22.2,11.4-30.3c-1.2-1.4-2.1-2.5-3.1-3.6c-5.5-6-8.4-13-8.2-21.3
	c0.2-6.5,0.3-13,0-19.5C222.3,319,224.4,308,234.8,299.6z M386.9,207.1c45,0.1,77.6-2.2,109.9-9.1c16.9-3.6,33.8-8,48.7-17.2
	c11.1-6.9,11.3-13.1-0.1-19.2c-10.3-5.5-21.4-10-32.7-13.3c-27.4-8.1-55.8-11.2-84.3-12.5c-43.9-2-87.6-0.3-130.7,9.4
	c-15.8,3.6-31.4,7.9-45.1,16.8c-10,6.5-10.2,12.3,0.1,18.1c9.4,5.2,19.4,9.7,29.7,12.8C320.4,204.2,359.5,206.9,386.9,207.1z
	 M398.6,433.8c31-0.3,61.2-2.1,91.1-7.8c17-3.3,33.9-7.3,49.4-15.2c4.7-2.4,8.9-5.8,12.9-9.2c2.6-2.2,2.6-5.5,0-8
	c-2.7-2.6-4.8-7.2-9.7-5.2c-32.6,13.6-67,18-101.8,20.6c-31.6,2.4-63.2,2-94.8-1c-30.4-2.9-60.4-7.6-88.9-19.4
	c-1.5-0.6-4-0.3-5.3,0.6c-8.4,5.5-8.5,10.5-0.2,16.5c2.1,1.6,4.4,3.2,6.8,4.1c8.6,3.5,17.1,7.4,26,10
	C321.7,430.8,360.3,433.3,398.6,433.8z M397.7,282.8c33.3-0.3,65.4-2.2,97-8.8c15.8-3.3,31.5-7.3,45.9-14.9c4.2-2.2,8-5.4,11.5-8.6
	c2.6-2.3,2.4-5.6-0.1-8c-2.7-2.5-4.7-7.1-9.7-5c-31.9,13.4-65.7,17.9-99.8,20.5c-35.6,2.7-71.2,2.2-106.8-1.9
	c-26.8-3.1-53.3-7.8-78.5-18.3c-1.3-0.5-3.2-1.1-4.1-0.5c-9.1,5.8-11.2,10.6-2.5,17c3.6,2.6,7.5,5,11.6,6.8c7.2,3,14.5,5.9,22,8
	C321.7,279.7,360.1,282.2,397.7,282.8z M399.3,358.1c31.2,0.1,62.3-2.1,92.9-8.2c16.3-3.2,32.5-7.2,47.4-15c4.5-2.3,8.6-5.6,12.4-9
	c2.6-2.3,2.5-5.6-0.1-8c-2.7-2.5-4.7-7.1-9.6-5c-29.6,12.4-60.8,17-92.4,19.9c-33.4,3.1-66.9,3.1-100.3,0.1
	c-31.7-2.9-63.1-7.5-92.9-19.8c-1.4-0.6-3.9-0.2-5.3,0.7c-8.4,5.6-8.5,10.6-0.2,16.5c3.2,2.3,6.7,4.5,10.4,5.9
	c8,3.2,16.1,6.5,24.4,8.8C323.1,355.3,361,358,399.3,358.1z"/>
</svg>
