<?xml version="1.0" encoding="utf-8"?>
<!-- Generator: Adobe Illustrator 17.1.0, SVG Export Plug-In . SVG Version: 6.00 Build 0)  -->
<!DOCTYPE svg PUBLIC "-//W3C//DTD SVG 1.0//EN" "http://www.w3.org/TR/2001/REC-SVG-20010904/DTD/svg10.dtd">
<svg version="1.0" id="Layer_1" xmlns="http://www.w3.org/2000/svg" xmlns:xlink="http://www.w3.org/1999/xlink" x="0px" y="0px"
	 viewBox="0 0 50 50" style="enable-background:new 0 0 50 50;" xml:space="preserve">
<path d="M45.998,44.94c-0.363-6.065-5.209-7.979-9.103-9.517c-2.339-0.923-4.368-1.725-4.979-3.13
	c-0.096-1.134-0.088-2.014-0.079-3.027l0.003-0.48c0.897-0.917,1.821-2.866,2.157-4.602c0.704-0.364,1.579-1.259,1.842-3.453
	c0.132-1.091-0.186-1.93-0.624-2.481c0.581-1.98,1.78-7.125-0.27-10.423c-0.859-1.383-2.161-2.254-3.873-2.593
	c-0.944-1.193-2.755-1.843-5.185-1.843c-3.681,0.068-6.375,1.193-8.007,3.343c-1.933,2.548-2.292,6.41-1.069,11.484
	c-0.451,0.551-0.783,1.401-0.65,2.513c0.265,2.205,1.122,3.104,1.844,3.465c0.343,1.731,1.288,3.68,2.208,4.596l0.002,0.468
	c0.009,1.015,0.017,1.896-0.08,3.033c-0.612,1.405-2.649,2.206-4.998,3.13c-3.908,1.537-8.771,3.45-9.136,9.517L5.938,46h40.124
	L45.998,44.94z M8.128,44c0.756-3.968,4.303-5.362,7.742-6.715c2.739-1.077,5.326-2.095,6.187-4.408l0.059-0.259
	c0.118-1.306,0.109-2.311,0.1-3.375l-0.005-0.925l0.018-0.595l-0.536-0.28c-0.438-0.298-1.607-2.315-1.8-4.119l-0.087-0.823
	l-0.825-0.068c-0.128-0.011-0.645-0.371-0.833-1.94c-0.096-0.807,0.296-1.091,0.298-1.092l0.635-0.386l-0.187-0.719
	c-1.214-4.671-1.013-8.251,0.582-10.352c1.243-1.638,3.413-2.497,6.432-2.552c1.877,0,3.265,0.469,3.712,1.253l0.244,0.428
	l0.487,0.068c1.336,0.186,2.284,0.755,2.896,1.742c1.536,2.472,0.647,7.04-0.12,9.349l-0.211,0.747l0.64,0.422
	c0.004,0.003,0.396,0.286,0.298,1.093c-0.188,1.569-0.705,1.93-0.833,1.94l-0.824,0.068l-0.088,0.822
	c-0.194,1.814-1.328,3.829-1.729,4.11l-0.535,0.28l-0.006,1.535c-0.009,1.062-0.018,2.066,0.1,3.369l0.059,0.259
	c0.86,2.312,3.438,3.33,6.166,4.407c3.425,1.353,6.957,2.747,7.711,6.716H8.128z"/>
</svg>
