<?xml version="1.0" encoding="utf-8"?>
<!-- Generator: Adobe Illustrator 21.0.0, SVG Export Plug-In . SVG Version: 6.00 Build 0)  -->
<svg version="1.1" id="Layer_1" xmlns="http://www.w3.org/2000/svg" xmlns:xlink="http://www.w3.org/1999/xlink" x="0px" y="0px"
	 viewBox="0 0 300 93" style="enable-background:new 0 0 300 93;" xml:space="preserve">
<style type="text/css">
	.st0{fill:#FFDD3E;}
	.st1{font-family:'Montreal-Serial-Bold';}
	.st2{font-size:43.6901px;}
	.st3{letter-spacing:4;}
</style>
<g>
	<circle class="st0" cx="57.1" cy="46.7" r="45.1"/>
</g>
<path d="M82.7,43.3C80.8,29,67.1,18.8,52.8,21.2C39.4,23.4,30,35.6,31.1,48.8c0.5,6.1,2.8,11.4,7,15.9c7.7,8.1,19.3,10.3,29.5,5.8
	c0.5-0.2,1-0.4,1.4-0.7c1-0.7,1.3-1.9,0.8-2.9c-0.5-1-1.7-1.5-2.8-1.2c-0.4,0.1-0.7,0.3-1.1,0.5c-3.9,1.8-8,2.4-12.2,1.8
	c-14.6-2.3-22.4-18.1-15.5-31.1c3.9-7.4,12.3-12,20.5-11.1c6.7,0.7,12,3.7,15.8,9.3c4.6,6.8,5,14,1.5,21.5c-0.2,0.5-0.5,0.7-1,0.3
	c-2.4-2.2-4.1-4.8-4.5-8.1c-0.1-0.5-0.1-1-0.1-1.4v-2.7c0-0.6,0-1.1,0-1.7v-6.6c0-1.3-1.1-2.4-2.4-2.4s-2.4,1.1-2.4,2.4v0.2v8.7v3.5
	c-0.8,4-4.3,7-8.6,7c-4.2,0-7.7-3-8.5-7V45v-8.6v-0.4c0-1.3-1.1-2.4-2.4-2.4c-1.3,0-2.4,1.1-2.4,2.4v9.6c0,0,0,0.5,0,1.1
	c0,0.2,0,0.5,0,0.8c0,0.2,0.1,0.4,0.1,0.4c0,0,0,0,0,0c0,0.1,0,0.3,0.1,0.4c0,0.2,0.1,0.5,0.1,0.7c0,0.1,0,0.2,0,0.2
	c0,0.2,0.1,0.3,0.1,0.5c0,0.1,0,0.2,0.1,0.3c0,0.2,0.1,0.3,0.1,0.5c0,0.1,0,0.1,0.1,0.2c0.1,0.2,0.1,0.5,0.2,0.7c0,0,0,0,0,0
	c1.4,4,4.2,6.8,8.5,8.1c5.5,1.7,10.2,0.3,14.1-3.9c0.7-0.7,0.7-0.8,1.2,0.1c1.7,2.7,4,4.9,6.7,6.5c0.9,0.5,1.7,0.6,2.6,0
	c0.5-0.3,0.9-0.9,1.2-1.4C82.2,55.5,83.5,49.6,82.7,43.3z"/>
<path d="M52.8,42.5L52.8,42.5c-0.6,0-1.2-0.5-1.2-1.2l0,0c0-0.6,0.5-1.2,1.2-1.2l0,0c0.6,0,1.2,0.5,1.2,1.2l0,0
	C54,42,53.5,42.5,52.8,42.5z"/>
<path d="M61.5,42.5L61.5,42.5c-0.6,0-1.2-0.5-1.2-1.2l0,0c0-0.6,0.5-1.2,1.2-1.2l0,0c0.6,0,1.2,0.5,1.2,1.2l0,0
	C62.7,42,62.2,42.5,61.5,42.5z"/>
<text transform="matrix(1 0 0 1 112.043 62.8828)"><tspan x="0" y="0" class="st1 st2">Use</tspan><tspan x="70.9" y="0" class="st1 st2 st3">r</tspan><tspan x="90.3" y="0" class="st1 st2">Com</tspan></text>
</svg>
