<?xml version="1.0" encoding="utf-8"?>
<!-- Generator: Adobe Illustrator 21.0.0, SVG Export Plug-In . SVG Version: 6.00 Build 0)  -->
<svg version="1.1" id="Layer_1" xmlns="http://www.w3.org/2000/svg" xmlns:xlink="http://www.w3.org/1999/xlink" x="0px" y="0px"
	 viewBox="0 0 300 300" style="enable-background:new 0 0 300 300;" xml:space="preserve">
<style type="text/css">
	.st0{fill:#FFDD3E;}
</style>
<g>
	<circle class="st0" cx="150" cy="150" r="147"/>
</g>
<path d="M233.5,138.7C227.4,92,182.6,59,136,66.7c-43.7,7.3-74.3,47-70.7,90c1.7,20,9.2,37.3,23,51.8c25.1,26.3,62.8,33.7,96.1,19
	c1.6-0.7,3.2-1.5,4.7-2.4c3.3-2.2,4.3-6.2,2.7-9.5c-1.7-3.4-5.4-5-9.1-3.8c-1.2,0.4-2.4,1-3.5,1.5c-12.7,6-26.1,7.9-39.9,5.7
	C91.5,211.3,66,160,88.5,117.3c12.7-24.1,40.2-39,67-36.3c21.7,2.2,39.2,12.1,51.4,30.2c14.9,22.2,16.2,45.8,4.9,70
	c-0.8,1.7-1.5,2.3-3.2,0.9c-8-7.2-13.4-15.7-14.8-26.5c-0.2-1.6-0.3-3.2-0.4-4.7v-8.7c0-1.9,0.1-3.7,0-5.4v-21.4
	c0-4.4-3.6-7.9-7.9-7.9c-4.4,0-7.9,3.6-7.9,7.9v0.8v28.4v11.5c-2.6,13-14.2,22.7-28,22.7c-13.7,0-25.2-9.8-27.8-22.7v-11.6v-27.9
	v-1.2c0-4.4-3.6-7.9-7.9-7.9s-7.9,3.6-7.9,7.9v31.3c0,0-0.1,1.5,0,3.6c0,0.8,0.1,1.7,0.1,2.6c0.1,0.8,0.2,1.3,0.2,1.4c0,0,0,0,0,0
	c0,0.4,0.1,0.9,0.2,1.3c0.1,0.8,0.2,1.5,0.4,2.3c0,0.2,0.1,0.5,0.1,0.7c0.1,0.5,0.2,1,0.3,1.5c0.1,0.3,0.1,0.6,0.2,0.8
	c0.1,0.5,0.3,1,0.4,1.5c0.1,0.2,0.1,0.4,0.2,0.6c0.2,0.8,0.4,1.5,0.7,2.2c0,0,0,0,0,0c4.4,13,13.7,22.1,27.8,26.6
	c17.8,5.6,33.4,0.8,46.2-12.8c2.2-2.4,2.1-2.5,3.9,0.3c5.6,8.9,13,15.9,22,21.2c2.8,1.6,5.6,1.9,8.4,0.1c1.7-1.1,2.8-2.8,3.9-4.5
	C231.9,178.5,236.2,159.4,233.5,138.7z"/>
<path d="M136.1,136.3H136c-2.1,0-3.8-1.7-3.8-3.8v-0.1c0-2.1,1.7-3.8,3.8-3.8h0.1c2.1,0,3.8,1.7,3.8,3.8v0.1
	C139.9,134.6,138.2,136.3,136.1,136.3z"/>
<path d="M164.6,136.3h-0.1c-2.1,0-3.8-1.7-3.8-3.8v-0.1c0-2.1,1.7-3.8,3.8-3.8h0.1c2.1,0,3.8,1.7,3.8,3.8v0.1
	C168.4,134.6,166.7,136.3,164.6,136.3z"/>
</svg>
